<svg width="520" height="520" viewBox="0 0 520 520" xmlns="http://www.w3.org/2000/svg">
  <defs>
    <!-- GOLD BANDS (light -> deep gold) -->
    <radialGradient id="gold1" cx="50%" cy="50%" r="50%">
      <stop offset="0%" stop-color="#fff9d6"/>
      <stop offset="100%" stop-color="#fff3b0"/>
    </radialGradient>
    <radialGradient id="gold2" cx="50%" cy="50%" r="50%">
      <stop offset="0%" stop-color="#fff3b0"/>
      <stop offset="100%" stop-color="#f8de7e"/>
    </radialGradient>
    <radialGradient id="gold3" cx="50%" cy="50%" r="50%">
      <stop offset="0%" stop-color="#f8de7e"/>
      <stop offset="100%" stop-color="#e3c24a"/>
    </radialGradient>
    <radialGradient id="gold4" cx="50%" cy="50%" r="50%">
      <stop offset="0%" stop-color="#e3c24a"/>
      <stop offset="100%" stop-color="#d4af37"/>
    </radialGradient>

    <!-- Platinum fill for text -->
    <linearGradient id="platinum" x1="0%" y1="0%" x2="0%" y2="100%">
      <stop offset="0%" stop-color="#f7f7f7"/>
      <stop offset="50%" stop-color="#e5e4e2"/>
      <stop offset="100%" stop-color="#c0c0c0"/>
    </linearGradient>

    <!-- Text glow (golden aura) -->
    <filter id="textGlow" x="-50%" y="-50%" width="200%" height="200%">
      <feGaussianBlur in="SourceAlpha" stdDeviation="2" result="blur"/>
      <feFlood flood-color="#ffd966" flood-opacity=".75"/>
      <feComposite in2="blur" operator="in" result="glow"/>
      <feMerge>
        <feMergeNode in="glow"/>
        <feMergeNode in="SourceGraphic"/>
      </feMerge>
    </filter>

    <!-- Outer aura (soft vignette) -->
    <radialGradient id="outerAura" cx="50%" cy="50%" r="75%">
      <stop offset="0%" stop-color="#ffd966" stop-opacity=".28"/>
      <stop offset="70%" stop-color="#ffd966" stop-opacity=".10"/>
      <stop offset="100%" stop-color="#ffd966" stop-opacity="0"/>
    </radialGradient>

    <!-- Top and bottom arcs for text (bottom reversed to keep text upright) -->
    <path id="arcTop" d="M 100 260 A 160 160 0 0 1 420 260" fill="none"/>
    <path id="arcBottom" d="M 420 260 A 160 160 0 0 1 100 260" fill="none"/>
  </defs>

  <!-- Outer aura -->
  <circle cx="260" cy="260" r="255" fill="url(#outerAura)"/>

  <!-- Four gold bands -->
  <circle cx="260" cy="260" r="238" fill="url(#gold4)"/>
  <circle cx="260" cy="260" r="210" fill="url(#gold3)"/>
  <circle cx="260" cy="260" r="182" fill="url(#gold2)"/>
  <circle cx="260" cy="260" r="154" fill="url(#gold1)"/>

  <!-- Subtle grooves -->
  <g opacity="0.35" stroke="#fff2a1" fill="none" stroke-width="2">
    <circle cx="260" cy="260" r="200"/>
    <circle cx="260" cy="260" r="186"/>
    <circle cx="260" cy="260" r="172"/>
    <circle cx="260" cy="260" r="158"/>
    <circle cx="260" cy="260" r="144"/>
    <circle cx="260" cy="260" r="130"/>
  </g>

  <!-- Glossy highlights -->
  <g opacity="0.15">
    <ellipse cx="330" cy="150" rx="145" ry="48" transform="rotate(15 330 150)" fill="#ffffff"/>
    <ellipse cx="200" cy="390" rx="120" ry="36" transform="rotate(-20 200 390)" fill="#ffffff" opacity=".45"/>
  </g>

  <!-- Center label -->
  <circle cx="260" cy="260" r="112" fill="#111112" stroke="#2a2a2a" stroke-width="2"/>
  <circle cx="260" cy="260" r="16" fill="#2b2b2b" stroke="#444" stroke-width="2"/>

  <!-- Platinum texts with glow -->
  <text font-family="Georgia, 'Times New Roman', serif" font-style="italic" font-weight="700" font-size="42" letter-spacing="2" fill="url(#platinum)" filter="url(#textGlow)">
    <textPath href="#arcTop" startOffset="50%" text-anchor="middle">ENZENEM</textPath>
  </text>
  <text font-family="Georgia, 'Times New Roman', serif" font-style="italic" font-weight="700" font-size="42" letter-spacing="2" fill="url(#platinum)" filter="url(#textGlow)">
    <textPath href="#arcBottom" startOffset="50%" text-anchor="middle">ENZENEM</textPath>
  </text>
</svg>
