<?xml version="1.0" encoding="UTF-8"?>
<svg xmlns="http://www.w3.org/2000/svg" viewBox="0 0 512 512">
  <!-- Átlátszó háttér, nagyobb, világosabb lemez + kontrasztos barázdák -->
  <defs>
    <!-- Külső perem enyhe fénnyel (kevésbé fekete érzet) -->
    <radialGradient id="rim" cx="50%" cy="50%" r="50%">
      <stop offset="78%" stop-color="#121212"/>
      <stop offset="92%" stop-color="#1a1a1a"/>
      <stop offset="100%" stop-color="#262626"/>
    </radialGradient>
    <!-- Középső arany fény -->
    <radialGradient id="centerGlow" cx="50%" cy="50%" r="60%">
      <stop offset="0%"  stop-color="#d4af37" stop-opacity="0.65"/>
      <stop offset="35%" stop-color="#1a1a1a" stop-opacity="0.0"/>
      <stop offset="100%" stop-color="#1a1a1a" stop-opacity="0"/>
    </radialGradient>
  </defs>

  <!-- Nagyobb külső kör (r=250), kevésbé sötét alap -->
  <circle cx="256" cy="256" r="250" fill="url(#rim)"/>
  <!-- Finom külső peremvonal -->
  <circle cx="256" cy="256" r="250" fill="none" stroke="#2a2a2a" stroke-width="2"/>

  <!-- Barázdák: erősebb kontraszt, sűrűbb kiosztás -->
  <g fill="none" stroke="#1f1f1f" opacity="0.85">
    <!-- Külsőtől befelé ~30 kör; vastagabb szélen, vékonyabb belül -->
    <circle cx="256" cy="256" r="236" stroke-width="2.2"/>
    <circle cx="256" cy="256" r="228" stroke-width="2.1"/>
    <circle cx="256" cy="256" r="220" stroke-width="2.0"/>
    <circle cx="256" cy="256" r="212" stroke-width="1.95"/>
    <circle cx="256" cy="256" r="204" stroke-width="1.9"/>
    <circle cx="256" cy="256" r="196" stroke-width="1.85"/>
    <circle cx="256" cy="256" r="188" stroke-width="1.8"/>
    <circle cx="256" cy="256" r="180" stroke-width="1.75"/>
    <circle cx="256" cy="256" r="172" stroke-width="1.7"/>
    <circle cx="256" cy="256" r="164" stroke-width="1.65"/>
    <circle cx="256" cy="256" r="156" stroke-width="1.6"/>
    <circle cx="256" cy="256" r="148" stroke-width="1.55"/>
    <circle cx="256" cy="256" r="140" stroke-width="1.5"/>
    <circle cx="256" cy="256" r="132" stroke-width="1.45"/>
    <circle cx="256" cy="256" r="124" stroke-width="1.4"/>
    <circle cx="256" cy="256" r="116" stroke-width="1.35"/>
    <circle cx="256" cy="256" r="108" stroke-width="1.3"/>
    <circle cx="256" cy="256" r="100" stroke-width="1.25"/>
    <circle cx="256" cy="256" r="92"  stroke-width="1.2"/>
    <circle cx="256" cy="256" r="84"  stroke-width="1.15"/>
    <circle cx="256" cy="256" r="76"  stroke-width="1.1"/>
    <circle cx="256" cy="256" r="68"  stroke-width="1.05"/>
    <circle cx="256" cy="256" r="60"  stroke-width="1.0"/>
    <circle cx="256" cy="256" r="52"  stroke-width="0.95"/>
    <circle cx="256" cy="256" r="44"  stroke-width="0.9"/>
    <circle cx="256" cy="256" r="38"  stroke-width="0.85"/>
    <circle cx="256" cy="256" r="32"  stroke-width="0.8"/>
    <circle cx="256" cy="256" r="26"  stroke-width="0.75"/>
    <circle cx="256" cy="256" r="20"  stroke-width="0.7"/>
    <circle cx="256" cy="256" r="14"  stroke-width="0.65"/>
  </g>

  <!-- Középső finom selyemfény -->
  <circle cx="256" cy="256" r="248" fill="url(#centerGlow)"/>

  <!-- Középpont (label furat) -->
  <circle cx="256" cy="256" r="7.5" fill="#d4af37" opacity="0.9"/>
</svg>
